<?xml version="1.0" encoding="utf-8"?>
<!-- Generator: Adobe Illustrator 21.1.0, SVG Export Plug-In . SVG Version: 6.00 Build 0)  -->
<svg version="1.1" id="Laag_1" xmlns="http://www.w3.org/2000/svg" xmlns:xlink="http://www.w3.org/1999/xlink" x="0px" y="0px"
	 viewBox="0 0 1024 1024" style="enable-background:new 0 0 1024 1024;" xml:space="preserve">
<style type="text/css">
	.st0{display:none;}
	.st1{display:inline;fill:#FF527A;}
	.st2{display:inline;fill:#41FC97;}
	.st3{display:inline;fill:#3D97FC;}
	.st4{fill:#41FC97;}
	.st5{display:inline;}
	.st6{fill:#FF527A;}
	.st7{fill:#FFFFFF;}
</style>
<g id="_x36_" class="st0">
	<path class="st1" d="M375.3,112.1c0,27.2-11.7,53.1-32.2,71l-1.6,0v1c-9.8,5.1-19.5,10.8-29,16.9h-0.3l-0.5,0.5
		c-48.5,31.4-89.5,74.4-118.5,124.3c-27.2,46.7-43.8,99.5-48.5,153.5c-5.7-16.8-15.8-31.9-29.4-43.7c-18-15.5-41-24-64.8-24h-0.3
		C71.3,313.8,122,226.8,197,159.7c48.3-43.3,103.8-75.5,165-96C370.7,78.3,375.3,95,375.3,112.1z"/>
</g>
<g id="_x35_" class="st0">
	<path class="st2" d="M299.8,812.5c-6.8-1.5-13.8-2.2-20.9-2.2c-35.7,0-68.5,19-86.2,49.9C118.8,792.4,69.2,705.1,49.2,607.4
		c-6.4-31.2-9.7-63.3-9.7-95.5c0-32.1,3.2-64.2,9.6-95.3c0.4,0,0.9,0,1.3,0c46.6,0,85.7,33.3,93.2,79.2c-0.2,5-0.3,10.2-0.3,15.3
		c0,5.2,0.1,10.4,0.3,15.5v0.1C148.4,641,206.4,746.7,299.8,812.5z"/>
</g>
<g id="_x34_" class="st0">
	<path class="st3" d="M640.9,909.7c0,18.6,5.1,36.7,14.9,52.4c-46.3,14.8-94.7,22.3-143.8,22.3c-51.6,0-102.3-8.3-150.8-24.6
		c-61.1-20.6-116.6-52.9-164.8-96.2c16.7-29.9,48.1-48.3,82.4-48.3c12.2,0,24,2.3,35.2,6.8c7.8,5,16,9.8,24.1,14.1
		c53.1,28.4,113.2,43.5,173.8,43.5c52.7,0,103.3-10.8,150.8-32.2C648.6,865.1,640.9,886.7,640.9,909.7z"/>
</g>
<g id="_x33_" class="st0">
	<path class="st1" d="M974.2,610.4c-20.7,97.7-73.4,188-148.4,254.8c-48.4,43-103.9,75.1-165.1,95.3c-9.7-15.2-14.8-32.7-14.8-50.8
		c0-25.8,10.2-49.9,28.7-67.8c14-6.9,27.7-14.7,40.7-23.4c46.6-30.9,86.2-72.6,114.5-120.7c26.9-45.8,43.8-97.6,49-150.5
		c14.7,37.8,51.2,63.2,92.7,63.2C972.4,610.5,973.3,610.4,974.2,610.4z"/>
</g>
<g id="_x32_">
	<path class="st4" d="M984.5,511.9c0,31.5-3.1,62.9-9.2,93.5c-1.3,0-2.5,0.1-3.7,0.1c-43.4,0-81-29.3-91.6-71.4
		c0.5-7.7,0.7-15.5,0.7-23.1c0-7.8-0.3-15.7-0.7-23.5c-3.6-57.7-21.1-114.3-50.4-164c-26.3-44.4-62.2-83.4-104.3-113.3
		c5.3,0.9,10.8,1.3,16.2,1.3c36.2,0,69.1-19.4,86.8-50.8c74.1,66.7,126,156.7,146.3,253.7l0,0.3
		C981.1,446.5,984.5,479.2,984.5,511.9z"/>
</g>
<g id="_x31_" class="st0">
	<path class="st3" d="M824.3,157.3c-16.6,30.4-48.2,49.2-82.9,49.2c-9.3,0-18.5-1.3-27.4-4l-0.3-0.3h-0.3c-11.7-7.6-24-14.7-36.6-21
		C625.4,155.4,570,142.4,512,142.4c-54.5,0-106.8,11.5-155.6,34.3c15.3-17.9,23.9-40.8,23.9-64.6c0-17.6-4.6-34.8-13.4-50
		C413.6,47,462.4,39.4,512,39.4c50.1,0,99.5,7.8,146.6,23.2C720,82.6,775.7,114.5,824.3,157.3z"/>
</g>
<g id="k2_1_" class="st0">
	<g id="k2" class="st5">
		<path class="st6" d="M718.9,547c-13-12-24.4-20.2-33.9-24.4c-9.6-4.2-20.4-7.5-32.1-9.8l-2-0.4v-2.1c0-12.6,6.8-19.3,19.7-19.3
			c11.5,0,24.5,3.9,38.6,11.7c29.7-19.4,54.2-42.5,72.7-68.7c18.6-26.4,28-53.6,28-80.8c0-32.4-12-58.3-35.8-76.9
			c-21.8-16.8-48.3-25.3-78.7-25.3c-22.2,0-41.1,3.1-56.4,9.1c0.5,0.2,1,0.4,1.5,0.6c0.6,0.2,1.1,0.5,1.7,0.7
			c1.5,0.7,2.9,1.3,4.4,2.1c0.7,0.4,1.4,0.7,2.2,1.1c0.7,0.3,1.3,0.7,2,1c0.1,0,0.2,0.1,0.3,0.2c0.5,0.3,1.1,0.6,1.6,0.9
			c3.2,1.8,6.4,3.8,9.5,6c0.5,0.4,1.1,0.7,1.6,1.1c0.1,0,0.1,0.1,0.2,0.1c0.5,0.4,1,0.7,1.5,1.1c0.5,0.4,1.1,0.8,1.6,1.2
			c1.5,1.2,2.9,2.3,4.3,3.6c0.5,0.4,0.9,0.8,1.4,1.2c1.1,1,2.1,1.9,3.1,2.9c2.1,2,4,4.1,5.8,6.3c1.2,1.4,2.4,2.9,3.5,4.4
			c1.1,1.5,2.2,3,3.2,4.5c0,0,0,0,0,0c0.9,1.3,1.8,2.7,2.6,4.1c0,0,0,0,0,0c0.7,1.1,1.3,2.3,2,3.5c0.3,0.5,0.5,1,0.8,1.5
			c0.3,0.7,0.7,1.3,1,2c1,2,1.9,4.1,2.7,6.2c0,0,0,0,0,0c0.7,1.7,1.3,3.5,1.9,5.3c0.3,0.9,0.6,1.8,0.8,2.7c0.5,1.8,1,3.7,1.5,5.6
			c0.4,1.9,0.8,3.8,1.2,5.7c0.3,1.9,0.6,3.9,0.9,5.9c0.6,5,0.9,10.1,0.9,15.4c0,28.3-9.8,56.4-29,83.7c-1.8,2.5-3.6,5-5.5,7.5
			c-1.3,1.6-2.6,3.3-3.9,4.9c-2,2.5-4,4.9-6.1,7.2c-1.4,1.6-2.8,3.2-4.2,4.7c-15.8,17.2-34.4,32.7-55.6,46.4l-1.3,0.8l-1.3-0.7
			c-13.9-7.8-26.5-11.8-37.5-11.8c-3.4,0-6.2,0.5-8.4,1.6c-0.5,0.2-1,0.5-1.4,0.8c-1.1,0.8-2,1.7-2.7,2.8c-0.3,0.5-0.6,1-0.9,1.6
			c-0.1,0.2-0.2,0.4-0.2,0.6c-0.2,0.4-0.3,0.8-0.4,1.3c-0.1,0.4-0.2,0.9-0.3,1.4c-0.1,0.7-0.2,1.5-0.3,2.2v0
			c1.4,0.3,2.8,0.6,4.2,0.9c3.6,0.8,7.1,1.8,10.5,2.8c1.1,0.3,2.2,0.7,3.3,1c1.4,0.5,2.7,0.9,4.1,1.4c1.9,0.7,3.7,1.4,5.5,2.1
			c1.2,0.5,2.4,1,3.5,1.5c1.2,0.5,2.5,1.2,3.8,1.8c0,0,0,0,0,0c1,0.5,2,1,3,1.6c0,0,0,0,0,0c0.7,0.4,1.3,0.8,2,1.2s1.4,0.8,2.1,1.3
			c0.7,0.4,1.4,0.9,2.1,1.4c0.7,0.5,1.4,1,2.2,1.5c6.2,4.4,12.9,9.8,20,16.4l104.8,96.6l-0.1,1.2c-0.2,1.8-0.3,3.6-0.5,5.4
			c-0.1,0.9-0.2,1.8-0.3,2.7c-0.1,1.1-0.3,2.2-0.4,3.3c-0.1,0.7-0.2,1.3-0.3,2c-0.1,0.9-0.3,1.7-0.4,2.6v0c-0.1,0.9-0.3,1.7-0.4,2.5
			c-0.1,0.9-0.3,1.8-0.5,2.7c-0.1,0.8-0.3,1.5-0.4,2.3c-0.1,0.8-0.3,1.7-0.5,2.5c-0.1,0.7-0.3,1.4-0.4,2.1c-0.2,1-0.5,2.1-0.7,3.1
			c-0.2,0.7-0.3,1.4-0.5,2.1c-0.2,0.8-0.4,1.6-0.6,2.4c-0.2,0.6-0.3,1.3-0.5,1.9c-0.7,2.7-1.5,5.3-2.3,7.9c-0.2,0.6-0.4,1.2-0.6,1.8
			c-1.6,4.9-3.4,9.6-5.3,14c-0.3,0.6-0.6,1.3-0.8,1.9c-0.3,0.7-0.6,1.4-1,2c-0.3,0.6-0.5,1.1-0.8,1.7c-0.3,0.6-0.6,1.2-0.9,1.8
			c-0.3,0.6-0.6,1.2-0.9,1.8c0,0,0,0,0,0c-0.3,0.5-0.6,1.1-0.9,1.6c0,0.1-0.1,0.2-0.2,0.3c-0.3,0.5-0.5,1-0.8,1.4
			c-0.2,0.4-0.5,0.8-0.7,1.2c-0.3,0.5-0.5,0.9-0.8,1.4c-0.8,1.3-1.6,2.6-2.5,3.9c-0.4,0.6-0.8,1.1-1.1,1.7c-0.4,0.5-0.8,1.1-1.1,1.6
			c-1.2,1.7-2.4,3.3-3.7,4.8c-1.6,2-3.3,3.9-5,5.8c-0.1,0.1-0.1,0.1-0.2,0.2c-0.5,0.5-0.9,0.9-1.4,1.4c-0.5,0.5-0.9,0.9-1.4,1.4
			c-0.5,0.5-0.9,0.9-1.4,1.4c-0.5,0.5-1,0.9-1.4,1.3c-0.5,0.4-0.9,0.8-1.4,1.2c-0.6,0.5-1.1,1-1.7,1.5c-0.4,0.4-0.9,0.7-1.4,1.1
			c-0.5,0.4-1.1,0.8-1.6,1.3c-0.5,0.4-1,0.8-1.5,1.1c-1,0.8-2.1,1.5-3.2,2.3c-0.5,0.4-1.1,0.7-1.6,1.1c-0.5,0.3-1,0.6-1.5,1
			c-0.6,0.4-1.2,0.8-1.8,1.1c-1.1,0.6-2.1,1.3-3.2,1.9c-0.1,0.1-0.2,0.1-0.3,0.2c12.8,4.2,26.8,6.3,41.9,6.3
			c75.6,0,116.2-40.3,124-123.1L718.9,547z"/>
		<path class="st7" d="M576.8,522c-1.2-0.5-2.3-1-3.5-1.5C574.5,521,575.6,521.5,576.8,522c1.2,0.5,2.5,1.2,3.8,1.8
			C579.3,523.2,578,522.6,576.8,522z M580.6,523.8c1,0.5,2,1,3,1.6C582.6,524.9,581.6,524.3,580.6,523.8z M597.8,511.8
			c-13.9-7.8-26.5-11.8-37.5-11.8c-3.4,0-6.2,0.5-8.4,1.6c2.2-1.1,5-1.6,8.4-1.6C571.3,500,583.9,504,597.8,511.8l1.3,0.7
			L597.8,511.8z M599.1,512.6L599.1,512.6l1.3-0.8L599.1,512.6z M642.1,261.6c1.5,0.7,2.9,1.3,4.4,2.1
			C645,262.9,643.6,262.2,642.1,261.6z M681,739.1c1.7-1.8,3.4-3.8,5-5.8C684.4,735.3,682.7,737.3,681,739.1z M694.7,310.5
			c1,2,1.9,4.1,2.7,6.2C696.6,314.6,695.7,312.5,694.7,310.5z M700.2,324.7c0.5,1.8,1,3.7,1.5,5.6
			C701.2,328.4,700.7,326.5,700.2,324.7z M540.7,516.4L540.7,516.4l2,0.4L540.7,516.4z M576.8,522c-1.2-0.5-2.3-1-3.5-1.5
			C574.5,521,575.6,521.5,576.8,522c1.2,0.5,2.5,1.2,3.8,1.8C579.3,523.2,578,522.6,576.8,522z M580.6,523.8c1,0.5,2,1,3,1.6
			C582.6,524.9,581.6,524.3,580.6,523.8z M597.8,511.8c-13.9-7.8-26.5-11.8-37.5-11.8c-3.4,0-6.2,0.5-8.4,1.6c2.2-1.1,5-1.6,8.4-1.6
			C571.3,500,583.9,504,597.8,511.8l1.3,0.7L597.8,511.8z M599.1,512.6L599.1,512.6l1.3-0.8L599.1,512.6z M642.1,261.6
			c1.5,0.7,2.9,1.3,4.4,2.1C645,262.9,643.6,262.2,642.1,261.6z M663.9,280.4c-0.6-0.5-1.2-0.9-1.9-1.4
			C662.7,279.4,663.3,279.9,663.9,280.4c0.1,0.1,0.3,0.2,0.4,0.3C664.2,280.6,664,280.5,663.9,280.4z M666.1,282.1
			c1.4,1.2,2.8,2.4,4.2,3.7C668.9,284.6,667.5,283.3,666.1,282.1z M681,739.1c1.7-1.8,3.4-3.8,5-5.8
			C684.4,735.3,682.7,737.3,681,739.1z M694.7,310.5c1,2,1.9,4.1,2.7,6.2C696.6,314.6,695.7,312.5,694.7,310.5z M700.2,324.7
			c0.5,1.8,1,3.7,1.5,5.6C701.2,328.4,700.7,326.5,700.2,324.7z M540.7,516.4L540.7,516.4l2,0.4L540.7,516.4z M576.8,522
			c-1.2-0.5-2.3-1-3.5-1.5C574.5,521,575.6,521.5,576.8,522c1.2,0.5,2.5,1.2,3.8,1.8C579.3,523.2,578,522.6,576.8,522z M580.6,523.8
			c1,0.5,2,1,3,1.6C582.6,524.9,581.6,524.3,580.6,523.8z M597.8,511.8c-13.9-7.8-26.5-11.8-37.5-11.8c-3.4,0-6.2,0.5-8.4,1.6
			c2.2-1.1,5-1.6,8.4-1.6C571.3,500,583.9,504,597.8,511.8l1.3,0.7L597.8,511.8z M599.1,512.6L599.1,512.6l1.3-0.8L599.1,512.6z
			 M642.1,261.6c1.5,0.7,2.9,1.3,4.4,2.1C645,262.9,643.6,262.2,642.1,261.6z M663.9,280.4c-0.6-0.5-1.2-0.9-1.9-1.4
			C662.7,279.4,663.3,279.9,663.9,280.4c0.1,0.1,0.3,0.2,0.4,0.3C664.2,280.6,664,280.5,663.9,280.4z M666.1,282.1
			c1.4,1.2,2.8,2.4,4.2,3.7C668.9,284.6,667.5,283.3,666.1,282.1z M681,739.1c1.7-1.8,3.4-3.8,5-5.8
			C684.4,735.3,682.7,737.3,681,739.1z M694.7,310.5c1,2,1.9,4.1,2.7,6.2C696.6,314.6,695.7,312.5,694.7,310.5z M700.2,324.7
			c0.5,1.8,1,3.7,1.5,5.6C701.2,328.4,700.7,326.5,700.2,324.7z M700.2,324.7c0.5,1.8,1,3.7,1.5,5.6
			C701.2,328.4,700.7,326.5,700.2,324.7z M694.7,310.5c1,2,1.9,4.1,2.7,6.2C696.6,314.6,695.7,312.5,694.7,310.5z M681,739.1
			c1.7-1.8,3.4-3.8,5-5.8C684.4,735.3,682.7,737.3,681,739.1z M666.1,282.1c1.4,1.2,2.8,2.4,4.2,3.7
			C668.9,284.6,667.5,283.3,666.1,282.1z M663.9,280.4c-0.6-0.5-1.2-0.9-1.9-1.4C662.7,279.4,663.3,279.9,663.9,280.4
			c0.1,0.1,0.3,0.2,0.4,0.3C664.2,280.6,664,280.5,663.9,280.4z M642.1,261.6c1.5,0.7,2.9,1.3,4.4,2.1
			C645,262.9,643.6,262.2,642.1,261.6z M599.1,512.6L599.1,512.6l1.3-0.8L599.1,512.6z M597.8,511.8c-13.9-7.8-26.5-11.8-37.5-11.8
			c-3.4,0-6.2,0.5-8.4,1.6c2.2-1.1,5-1.6,8.4-1.6C571.3,500,583.9,504,597.8,511.8l1.3,0.7L597.8,511.8z M580.6,523.8
			c1,0.5,2,1,3,1.6C582.6,524.9,581.6,524.3,580.6,523.8z M576.8,522c-1.2-0.5-2.3-1-3.5-1.5C574.5,521,575.6,521.5,576.8,522
			c1.2,0.5,2.5,1.2,3.8,1.8C579.3,523.2,578,522.6,576.8,522z M540.7,516.4L540.7,516.4l2,0.4L540.7,516.4z M700.2,324.7
			c0.5,1.8,1,3.7,1.5,5.6C701.2,328.4,700.7,326.5,700.2,324.7z M694.7,310.5c1,2,1.9,4.1,2.7,6.2
			C696.6,314.6,695.7,312.5,694.7,310.5z M681,739.1c1.7-1.8,3.4-3.8,5-5.8C684.4,735.3,682.7,737.3,681,739.1z M666.1,282.1
			c1.4,1.2,2.8,2.4,4.2,3.7C668.9,284.6,667.5,283.3,666.1,282.1z M663.9,280.4c-0.6-0.5-1.2-0.9-1.9-1.4
			C662.7,279.4,663.3,279.9,663.9,280.4c0.1,0.1,0.3,0.2,0.4,0.3C664.2,280.6,664,280.5,663.9,280.4z M642.1,261.6
			c1.5,0.7,2.9,1.3,4.4,2.1C645,262.9,643.6,262.2,642.1,261.6z M599.1,512.6L599.1,512.6l1.3-0.8L599.1,512.6z M597.8,511.8
			c-13.9-7.8-26.5-11.8-37.5-11.8c-3.4,0-6.2,0.5-8.4,1.6c2.2-1.1,5-1.6,8.4-1.6C571.3,500,583.9,504,597.8,511.8l1.3,0.7
			L597.8,511.8z M580.6,523.8c1,0.5,2,1,3,1.6C582.6,524.9,581.6,524.3,580.6,523.8z M576.8,522c-1.2-0.5-2.3-1-3.5-1.5
			C574.5,521,575.6,521.5,576.8,522c1.2,0.5,2.5,1.2,3.8,1.8C579.3,523.2,578,522.6,576.8,522z M540.7,516.4L540.7,516.4l2,0.4
			L540.7,516.4z M666.1,282.1c1.4,1.2,2.8,2.4,4.2,3.7C668.9,284.6,667.5,283.3,666.1,282.1z M663.9,280.4c-0.6-0.5-1.2-0.9-1.9-1.4
			C662.7,279.4,663.3,279.9,663.9,280.4c0.1,0.1,0.3,0.2,0.4,0.3C664.2,280.6,664,280.5,663.9,280.4z M540.7,516.4L540.7,516.4
			l2,0.4L540.7,516.4z"/>
	</g>
</g>
<g id="k1" class="st0">
	<g class="st5">
		<path class="st4" d="M711.7,645.8l-103-94.9c-8.1-7.5-15.7-13.5-22.4-18c-0.7-0.4-1.3-0.9-2-1.3c-1.7-1-3.3-2-4.9-2.8
			c-0.6-0.3-1.3-0.7-1.9-1c-0.6-0.3-1.2-0.6-1.8-0.9c-0.3-0.1-0.6-0.3-0.9-0.4c-3.8-1.7-7.7-3.2-11.9-4.5c-0.9-0.3-1.9-0.6-2.9-0.9
			c-2.2-0.7-4.4-1.3-6.7-1.9c-2.1-0.5-4.2-1-6.3-1.5c-1.4-0.3-2.9-0.6-4.4-0.9l-2-0.4v-2.1c0-7.5,2.4-12.9,7-16
			c0.7-0.5,1.5-0.9,2.4-1.3c0.3-0.2,0.7-0.3,1.1-0.5c2.6-1,5.7-1.5,9.2-1.5c2.9,0,5.8,0.3,8.9,0.7c1.7,0.3,3.4,0.6,5.1,1
			c0.6,0.1,1.2,0.3,1.7,0.4c1.8,0.5,3.5,1,5.3,1.6c0.6,0.2,1.2,0.4,1.8,0.6c2.7,1,5.5,2.1,8.3,3.5c0.6,0.3,1.2,0.5,1.7,0.8
			c1,0.5,2,1,3,1.5c0.4,0.2,0.9,0.5,1.3,0.7c0.4,0.2,0.9,0.5,1.3,0.7c0.9-0.6,1.9-1.2,2.8-1.8c0.9-0.6,1.8-1.2,2.7-1.8
			c1.8-1.2,3.6-2.5,5.4-3.8c1.8-1.3,3.5-2.5,5.3-3.9c2.6-1.9,5.2-3.9,7.7-5.9c2.5-2,5-4,7.4-6.1c4.8-4.1,9.4-8.4,13.8-12.8
			c5.2-5.1,10-10.4,14.7-15.8c1.2-1.3,2.3-2.7,3.4-4.1c0.5-0.7,1.1-1.4,1.7-2.1c1.7-2.1,3.3-4.2,4.8-6.3c0,0,0,0,0,0
			c1-1.4,2.1-2.8,3.1-4.3c1.5-2.1,2.9-4.1,4.2-6.2c3-4.7,5.8-9.3,8.2-14c0.5-1,1.1-2.1,1.6-3.1c0.3-0.5,0.5-1,0.8-1.6
			c0.8-1.7,1.6-3.4,2.3-5c0.4-0.8,0.7-1.7,1.1-2.5c1-2.5,2-5,2.9-7.6c4.7-13.5,7-27.1,7-40.7c0-6.1-0.4-11.9-1.3-17.5
			c-0.3-1.9-0.6-3.7-1-5.5c-0.4-2-0.9-4-1.4-6c-0.4-1.6-0.9-3.1-1.4-4.6c-0.8-2.6-1.8-5.1-2.8-7.5c-0.7-1.6-1.4-3.2-2.2-4.8
			c-0.8-1.6-1.6-3.1-2.5-4.7c-4-6.9-8.9-13.2-14.8-18.9c-0.6-0.6-1.3-1.3-2-1.9c-1.3-1.3-2.7-2.5-4.2-3.7c-0.5-0.4-0.9-0.8-1.4-1.1
			c-0.1-0.1-0.3-0.2-0.4-0.3c-0.1-0.1-0.3-0.2-0.4-0.3c-0.6-0.5-1.2-0.9-1.9-1.4c-2.5-1.8-5.1-3.6-7.7-5.2c-0.7-0.4-1.3-0.8-2-1.2
			c-2.2-1.3-4.5-2.6-6.8-3.7c-1.1-0.6-2.3-1.2-3.4-1.7c-0.8-0.4-1.6-0.7-2.4-1.1c-1.2-0.5-2.4-1-3.6-1.5c-0.3-0.1-0.6-0.2-0.8-0.3
			c-1.3-0.5-2.6-1-3.9-1.5h0c-14.1-5-29.6-7.6-46.3-7.6c-24.2,0-44.5,3.6-60.5,10.8c-3.9,1.8-7.7,3.8-11.1,6l-77.3,169.5h-1.6
			c-9.9,0-15.4-4.9-15.4-13.8c0-4.8,2.8-13.3,8.4-25.8c5.4-12,13.1-28.4,23.6-50.1v-17c0-26.8-10.9-47.4-32.4-61.2
			c-9.3-5.6-19.9-10-31.3-12.9c-12-3.1-25.3-4.6-39.6-4.6c-53.2,0-93.5,11.9-119.8,35.3v402c0,24.8,10.7,43.4,32.8,56.8
			c19.6,12.5,43.5,18.8,71,18.8c25.8,0,48.9-3.1,68.5-9.2c18.9-5.9,35.1-14.7,48.2-26.2v-28.4c-14.5-32.3-25.4-58.4-32.7-77.8
			c-7.5-18.4-11.1-29.8-11.1-34.9c0-5,2-13.4,15.4-13.4h3.6l37,92.2c13.3,34,31.9,59.7,55.4,76.2c2.4,1.8,4.9,3.3,7.2,4.7
			c18.3,11.1,40,16.7,64.4,16.7c23.6,0,44.1-4.1,60.9-12.2c3.7-1.8,7.3-3.8,10.7-6c0.5-0.3,1-0.6,1.5-1c4.9-3.3,9.5-7,13.8-11.2
			c0.9-0.9,1.8-1.8,2.6-2.7v0c1.3-1.4,2.5-2.8,3.8-4.2c0,0,0,0,0,0c1.2-1.5,2.4-2.9,3.5-4.5c3.8-5.1,7.3-10.7,10.3-16.8
			c0.6-1.2,1.2-2.4,1.8-3.7c0.9-1.9,1.7-3.8,2.5-5.8c0.5-1.3,1.1-2.6,1.6-4c1.8-4.7,3.4-9.7,4.7-14.8c0.6-2.2,1.2-4.5,1.7-6.8
			c0.7-3.1,1.3-6.2,1.9-9.4c0,0,0,0,0,0c0.3-1.6,0.6-3.2,0.8-4.9C710.5,656.2,711.2,651.1,711.7,645.8L711.7,645.8z"/>
		<path class="st7" d="M560.4,495c-3.5,0-6.6,0.5-9.2,1.5C553.8,495.5,556.8,495,560.4,495c2.9,0,5.8,0.3,8.9,0.7
			C566.2,495.3,563.2,495,560.4,495z M598.9,506.7c-0.4-0.2-0.9-0.5-1.3-0.7C598.1,506.3,598.5,506.5,598.9,506.7
			c0.9-0.6,1.9-1.2,2.8-1.8C600.8,505.5,599.9,506.1,598.9,506.7z M663.7,448.7c1.7-2.1,3.3-4.2,4.8-6.3
			C666.9,444.5,665.3,446.6,663.7,448.7z M671.6,438.1c-1,1.4-2,2.9-3.1,4.3C669.6,441,670.6,439.5,671.6,438.1
			c1.5-2,2.9-4.1,4.2-6.2C674.5,434,673,436,671.6,438.1z M680.9,731.6c1.2-1.5,2.4-2.9,3.5-4.5
			C683.3,728.7,682.1,730.2,680.9,731.6z M686.4,413.1c0.8-1.7,1.6-3.4,2.3-5C687.9,409.8,687.2,411.5,686.4,413.1z M687,306.7
			c0.9,1.5,1.7,3.1,2.5,4.7C688.7,309.7,687.9,308.2,687,306.7z M689.5,311.3c0.8,1.6,1.5,3.2,2.2,4.8
			C691.1,314.5,690.3,312.9,689.5,311.3z M705.3,682.1c0.6-2.2,1.2-4.5,1.7-6.8C706.5,677.6,705.9,679.9,705.3,682.1z M707,675.4
			c0.7-3.1,1.3-6.2,1.9-9.4C708.4,669.2,707.7,672.3,707,675.4z M711.7,645.8c-0.5,5.3-1.1,10.3-1.9,15.3
			C710.5,656.2,711.2,651.1,711.7,645.8L711.7,645.8z M711.7,645.8c-0.5,5.3-1.1,10.3-1.9,15.3C710.5,656.2,711.2,651.1,711.7,645.8
			L711.7,645.8z M707,675.4c0.7-3.1,1.3-6.2,1.9-9.4C708.4,669.2,707.7,672.3,707,675.4z M705.3,682.1c0.6-2.2,1.2-4.5,1.7-6.8
			C706.5,677.6,705.9,679.9,705.3,682.1z M689.5,311.3c0.8,1.6,1.5,3.2,2.2,4.8C691.1,314.5,690.3,312.9,689.5,311.3z M687,306.7
			c0.9,1.5,1.7,3.1,2.5,4.7C688.7,309.7,687.9,308.2,687,306.7z M686.4,413.1c0.8-1.7,1.6-3.4,2.3-5
			C687.9,409.8,687.2,411.5,686.4,413.1z M680.9,731.6c1.2-1.5,2.4-2.9,3.5-4.5C683.3,728.7,682.1,730.2,680.9,731.6z M671.6,438.1
			c-1,1.4-2,2.9-3.1,4.3C669.6,441,670.6,439.5,671.6,438.1c1.5-2,2.9-4.1,4.2-6.2C674.5,434,673,436,671.6,438.1z M663.7,448.7
			c1.7-2.1,3.3-4.2,4.8-6.3C666.9,444.5,665.3,446.6,663.7,448.7z M598.9,506.7c-0.4-0.2-0.9-0.5-1.3-0.7
			C598.1,506.3,598.5,506.5,598.9,506.7c0.9-0.6,1.9-1.2,2.8-1.8C600.8,505.5,599.9,506.1,598.9,506.7z M560.4,495
			c-3.5,0-6.6,0.5-9.2,1.5C553.8,495.5,556.8,495,560.4,495c2.9,0,5.8,0.3,8.9,0.7C566.2,495.3,563.2,495,560.4,495z M545.8,512.3
			L545.8,512.3c1.4,0.3,2.8,0.6,4.2,0.9C548.5,512.9,547.2,512.6,545.8,512.3z M560.4,495c-3.5,0-6.6,0.5-9.2,1.5
			C553.8,495.5,556.8,495,560.4,495c2.9,0,5.8,0.3,8.9,0.7C566.2,495.3,563.2,495,560.4,495z M598.9,506.7c-0.4-0.2-0.9-0.5-1.3-0.7
			C598.1,506.3,598.5,506.5,598.9,506.7c0.9-0.6,1.9-1.2,2.8-1.8C600.8,505.5,599.9,506.1,598.9,506.7z M663.7,448.7
			c1.7-2.1,3.3-4.2,4.8-6.3C666.9,444.5,665.3,446.6,663.7,448.7z M667,276.4c-0.5-0.4-1.1-0.8-1.6-1.2
			C665.9,275.6,666.4,276,667,276.4c1.5,1.2,2.9,2.4,4.3,3.6C669.9,278.8,668.4,277.6,667,276.4z M671.6,438.1c-1,1.4-2,2.9-3.1,4.3
			C669.6,441,670.6,439.5,671.6,438.1c1.5-2,2.9-4.1,4.2-6.2C674.5,434,673,436,671.6,438.1z M680.9,731.6c1.2-1.5,2.4-2.9,3.5-4.5
			C683.3,728.7,682.1,730.2,680.9,731.6z M686.4,413.1c0.8-1.7,1.6-3.4,2.3-5C687.9,409.8,687.2,411.5,686.4,413.1z M687,306.7
			c0.9,1.5,1.7,3.1,2.5,4.7C688.7,309.7,687.9,308.2,687,306.7z M689.5,311.3c0.8,1.6,1.5,3.2,2.2,4.8
			C691.1,314.5,690.3,312.9,689.5,311.3z M705.3,682.1c0.6-2.2,1.2-4.5,1.7-6.8C706.5,677.6,705.9,679.9,705.3,682.1z M707,675.4
			c0.7-3.1,1.3-6.2,1.9-9.4C708.4,669.2,707.7,672.3,707,675.4z M711.7,645.8c-0.5,5.3-1.1,10.3-1.9,15.3
			C710.5,656.2,711.2,651.1,711.7,645.8L711.7,645.8z M612,547.3l104.8,96.6v0L612,547.3z M560.4,495c-3.5,0-6.6,0.5-9.2,1.5
			C553.8,495.5,556.8,495,560.4,495c2.9,0,5.8,0.3,8.9,0.7C566.2,495.3,563.2,495,560.4,495z M598.9,506.7c-0.4-0.2-0.9-0.5-1.3-0.7
			C598.1,506.3,598.5,506.5,598.9,506.7c0.9-0.6,1.9-1.2,2.8-1.8C600.8,505.5,599.9,506.1,598.9,506.7z M663.7,448.7
			c1.7-2.1,3.3-4.2,4.8-6.3C666.9,444.5,665.3,446.6,663.7,448.7z M671.6,438.1c-1,1.4-2,2.9-3.1,4.3
			C669.6,441,670.6,439.5,671.6,438.1c1.5-2,2.9-4.1,4.2-6.2C674.5,434,673,436,671.6,438.1z M680.9,731.6c1.2-1.5,2.4-2.9,3.5-4.5
			C683.3,728.7,682.1,730.2,680.9,731.6z M686.4,413.1c0.8-1.7,1.6-3.4,2.3-5C687.9,409.8,687.2,411.5,686.4,413.1z M687,306.7
			c0.9,1.5,1.7,3.1,2.5,4.7C688.7,309.7,687.9,308.2,687,306.7z M689.5,311.3c0.8,1.6,1.5,3.2,2.2,4.8
			C691.1,314.5,690.3,312.9,689.5,311.3z M705.3,682.1c0.6-2.2,1.2-4.5,1.7-6.8C706.5,677.6,705.9,679.9,705.3,682.1z M707,675.4
			c0.7-3.1,1.3-6.2,1.9-9.4C708.4,669.2,707.7,672.3,707,675.4z M711.7,645.8c-0.5,5.3-1.1,10.3-1.9,15.3
			C710.5,656.2,711.2,651.1,711.7,645.8L711.7,645.8z M711.7,645.8c-0.5,5.3-1.1,10.3-1.9,15.3C710.5,656.2,711.2,651.1,711.7,645.8
			L711.7,645.8z M707,675.4c0.7-3.1,1.3-6.2,1.9-9.4C708.4,669.2,707.7,672.3,707,675.4z M705.3,682.1c0.6-2.2,1.2-4.5,1.7-6.8
			C706.5,677.6,705.9,679.9,705.3,682.1z M689.5,311.3c0.8,1.6,1.5,3.2,2.2,4.8C691.1,314.5,690.3,312.9,689.5,311.3z M687,306.7
			c0.9,1.5,1.7,3.1,2.5,4.7C688.7,309.7,687.9,308.2,687,306.7z M686.4,413.1c0.8-1.7,1.6-3.4,2.3-5
			C687.9,409.8,687.2,411.5,686.4,413.1z M680.9,731.6c1.2-1.5,2.4-2.9,3.5-4.5C683.3,728.7,682.1,730.2,680.9,731.6z M671.6,438.1
			c-1,1.4-2,2.9-3.1,4.3C669.6,441,670.6,439.5,671.6,438.1c1.5-2,2.9-4.1,4.2-6.2C674.5,434,673,436,671.6,438.1z M663.7,448.7
			c1.7-2.1,3.3-4.2,4.8-6.3C666.9,444.5,665.3,446.6,663.7,448.7z M598.9,506.7c-0.4-0.2-0.9-0.5-1.3-0.7
			C598.1,506.3,598.5,506.5,598.9,506.7c0.9-0.6,1.9-1.2,2.8-1.8C600.8,505.5,599.9,506.1,598.9,506.7z M560.4,495
			c-3.5,0-6.6,0.5-9.2,1.5C553.8,495.5,556.8,495,560.4,495c2.9,0,5.8,0.3,8.9,0.7C566.2,495.3,563.2,495,560.4,495z M560.4,495
			c-3.5,0-6.6,0.5-9.2,1.5C553.8,495.5,556.8,495,560.4,495c2.9,0,5.8,0.3,8.9,0.7C566.2,495.3,563.2,495,560.4,495z M598.9,506.7
			c-0.4-0.2-0.9-0.5-1.3-0.7C598.1,506.3,598.5,506.5,598.9,506.7c0.9-0.6,1.9-1.2,2.8-1.8C600.8,505.5,599.9,506.1,598.9,506.7z
			 M663.7,448.7c1.7-2.1,3.3-4.2,4.8-6.3C666.9,444.5,665.3,446.6,663.7,448.7z M671.6,438.1c-1,1.4-2,2.9-3.1,4.3
			C669.6,441,670.6,439.5,671.6,438.1c1.5-2,2.9-4.1,4.2-6.2C674.5,434,673,436,671.6,438.1z M680.9,731.6c1.2-1.5,2.4-2.9,3.5-4.5
			C683.3,728.7,682.1,730.2,680.9,731.6z M686.4,413.1c0.8-1.7,1.6-3.4,2.3-5C687.9,409.8,687.2,411.5,686.4,413.1z M687,306.7
			c0.9,1.5,1.7,3.1,2.5,4.7C688.7,309.7,687.9,308.2,687,306.7z M689.5,311.3c0.8,1.6,1.5,3.2,2.2,4.8
			C691.1,314.5,690.3,312.9,689.5,311.3z M705.3,682.1c0.6-2.2,1.2-4.5,1.7-6.8C706.5,677.6,705.9,679.9,705.3,682.1z M707,675.4
			c0.7-3.1,1.3-6.2,1.9-9.4C708.4,669.2,707.7,672.3,707,675.4z M711.7,645.8c-0.5,5.3-1.1,10.3-1.9,15.3
			C710.5,656.2,711.2,651.1,711.7,645.8L711.7,645.8z M711.7,645.8c-0.5,5.3-1.1,10.3-1.9,15.3C710.5,656.2,711.2,651.1,711.7,645.8
			L711.7,645.8z M707,675.4c0.7-3.1,1.3-6.2,1.9-9.4C708.4,669.2,707.7,672.3,707,675.4z M705.3,682.1c0.6-2.2,1.2-4.5,1.7-6.8
			C706.5,677.6,705.9,679.9,705.3,682.1z M689.5,311.3c0.8,1.6,1.5,3.2,2.2,4.8C691.1,314.5,690.3,312.9,689.5,311.3z M687,306.7
			c0.9,1.5,1.7,3.1,2.5,4.7C688.7,309.7,687.9,308.2,687,306.7z M686.4,413.1c0.8-1.7,1.6-3.4,2.3-5
			C687.9,409.8,687.2,411.5,686.4,413.1z M680.9,731.6c1.2-1.5,2.4-2.9,3.5-4.5C683.3,728.7,682.1,730.2,680.9,731.6z M671.6,438.1
			c-1,1.4-2,2.9-3.1,4.3C669.6,441,670.6,439.5,671.6,438.1c1.5-2,2.9-4.1,4.2-6.2C674.5,434,673,436,671.6,438.1z M663.7,448.7
			c1.7-2.1,3.3-4.2,4.8-6.3C666.9,444.5,665.3,446.6,663.7,448.7z M598.9,506.7c-0.4-0.2-0.9-0.5-1.3-0.7
			C598.1,506.3,598.5,506.5,598.9,506.7c0.9-0.6,1.9-1.2,2.8-1.8C600.8,505.5,599.9,506.1,598.9,506.7z M560.4,495
			c-3.5,0-6.6,0.5-9.2,1.5C553.8,495.5,556.8,495,560.4,495c2.9,0,5.8,0.3,8.9,0.7C566.2,495.3,563.2,495,560.4,495z"/>
	</g>
</g>
</svg>
